HIERARCHY
ROOT Hips
{
	OFFSET 0.00000 0.00000 0.00000
	CHANNELS 6 Xposition Yposition Zposition Zrotation Yrotation Xrotation 
	JOINT LHipJoint
	{
		OFFSET 0 0 0
		CHANNELS 3 Zrotation Yrotation Xrotation
		JOINT LeftUpLeg
		{
			OFFSET 1.70593 -1.62653 0.87602
			CHANNELS 3 Zrotation Yrotation Xrotation
			JOINT LeftLeg
			{
				OFFSET 2.32330 -6.38322 0.00000
				CHANNELS 3 Zrotation Yrotation Xrotation
				JOINT LeftFoot
				{
					OFFSET 2.45016 -6.73177 0.00000
					CHANNELS 3 Zrotation Yrotation Xrotation
					JOINT LeftToeBase
					{
						OFFSET 0.13029 -0.35798 1.96980
						CHANNELS 3 Zrotation Yrotation Xrotation
						End Site
						{
							OFFSET 0.00000 -0.00000 1.01270
						}
					}
				}
			}
		}
	}
	JOINT RHipJoint
	{
		OFFSET 0 0 0
		CHANNELS 3 Zrotation Yrotation Xrotation
		JOINT RightUpLeg
		{
			OFFSET -1.80599 -1.62652 0.87602
			CHANNELS 3 Zrotation Yrotation Xrotation
			JOINT RightLeg
			{
				OFFSET -2.45375 -6.74162 0.00000
				CHANNELS 3 Zrotation Yrotation Xrotation
				JOINT RightFoot
				{
					OFFSET -2.45828 -6.75406 0.00000
					CHANNELS 3 Zrotation Yrotation Xrotation
					JOINT RightToeBase
					{
						OFFSET -0.13801 -0.37917 1.88456
						CHANNELS 3 Zrotation Yrotation Xrotation
						End Site
						{
							OFFSET -0.00000 -0.00000 0.97281
						}
					}
				}
			}
		}
	}
	JOINT LowerBack
	{
		OFFSET 0 0 0
		CHANNELS 3 Zrotation Yrotation Xrotation
		JOINT Spine
		{
			OFFSET 0.01003 2.00576 -0.14267
			CHANNELS 3 Zrotation Yrotation Xrotation
			JOINT Spine1
			{
				OFFSET 0.00908 2.01191 0.01660
				CHANNELS 3 Zrotation Yrotation Xrotation
				JOINT Neck
				{
					OFFSET 0 0 0
					CHANNELS 3 Zrotation Yrotation Xrotation
					JOINT Neck1
					{
						OFFSET -0.05849 1.60301 0.18934
						CHANNELS 3 Zrotation Yrotation Xrotation
						JOINT Head
						{
							OFFSET 0.01775 1.59435 -0.07960
							CHANNELS 3 Zrotation Yrotation Xrotation
							End Site
							{
								OFFSET 0.01210 1.70732 -0.05248
							}
						}
					}
				}
				JOINT LeftShoulder
				{
					OFFSET 0 0 0
					CHANNELS 3 Zrotation Yrotation Xrotation
					JOINT LeftArm
					{
						OFFSET 3.15315 1.26460 0.30667
						CHANNELS 3 Zrotation Yrotation Xrotation
						JOINT LeftForeArm
						{
							OFFSET 4.97694 -0.00000 -0.00000
							CHANNELS 3 Zrotation Yrotation Xrotation
							JOINT LeftHand
							{
								OFFSET 3.14391 -0.00000 -0.00000
								CHANNELS 3 Zrotation Yrotation Xrotation
								JOINT LeftFingerBase
								{
									OFFSET 0 0 0
									CHANNELS 3 Zrotation Yrotation Xrotation
									JOINT LeftHandIndex1
									{
										OFFSET 0.59358 -0.00000 -0.00000
										CHANNELS 3 Zrotation Yrotation Xrotation
										End Site
										{
											OFFSET 0.47856 -0.00000 -0.00000
										}
									}
								}
								JOINT LThumb
								{
									OFFSET 0 0 0
									CHANNELS 3 Zrotation Yrotation Xrotation
									End Site
									{
										OFFSET 0.48587 -0.00000 0.48587
									}
								}
							}
						}
					}
				}
				JOINT RightShoulder
				{
					OFFSET 0 0 0
					CHANNELS 3 Zrotation Yrotation Xrotation
					JOINT RightArm
					{
						OFFSET -3.25568 1.35581 0.18982
						CHANNELS 3 Zrotation Yrotation Xrotation
						JOINT RightForeArm
						{
							OFFSET -4.90473 -0.00000 0.00000
							CHANNELS 3 Zrotation Yrotation Xrotation
							JOINT RightHand
							{
								OFFSET -3.21621 0.00006 -0.00004
								CHANNELS 3 Zrotation Yrotation Xrotation
								JOINT RightFingerBase
								{
									OFFSET 0 0 0
									CHANNELS 3 Zrotation Yrotation Xrotation
									JOINT RightHandIndex1
									{
										OFFSET -0.62353 -0.00000 -0.00000
										CHANNELS 3 Zrotation Yrotation Xrotation
										End Site
										{
											OFFSET -0.50270 -0.00000 -0.00000
										}
									}
								}
								JOINT RThumb
								{
									OFFSET 0 0 0
									CHANNELS 3 Zrotation Yrotation Xrotation
									End Site
									{
										OFFSET -0.51038 -0.00000 0.51038
									}
								}
							}
						}
					}
				}
			}
		}
	}
}
MOTION
Frames: 7
Frame Time: .0083333
7.1998 15.3951 -37.2754 0 0 0 0 0 0 -21 0 0 0 0 0 0 0 0 0 0 0 0 0 0 21 0 0 0 0 0 0 0 0 0 0 0 0 0 0 0 0 0 0 0 0 0 0 -16 0 0 21 0 0 11 0 0 0 -8 0 0 0 0 0 0 0 0 0 0 0 0 0 0 0 0 0 0 0 0 8 0 0 0 0 0 0 0 0 0 0 0 0 0 0 0 0 0
7.1998 15.3951 -37.2754 2.4139 -3.0204 6.1014 0.0000 0.0000 0.0000 -26.8708 -2.5485 -10.7335 2.6652 10.1323 29.4061 0.7208 -11.3659 -16.0127 0.3866 3.9926 11.0558 0.0000 0.0000 0.0000 18.3439 13.1612 -36.7486 -9.4795 -17.1066 57.7342 -0.8354 5.6897 -16.2939 -0.9912 6.3365 -17.7641 -3.5722 1.2167 1.8452 0.1311 1.4878 -3.2516 2.0506 0.8643 -4.4901 -4.5710 0.9263 -10.3665 2.8283 1.6017 11.2456 1.7416 0.7799 5.0189 0.0000 -0.0000 0.0000 -87.9549 -4.0293 21.7358 11.9299 -19.6994 -2.0786 -0.0000 0.0000 -6.4705 19.2576 -8.7524 -3.0430 -7.1250 0.0000 -0.0000 -5.4990 20.7366 3.2103 0.0000 -0.0000 0.0000 92.5220 -16.2226 7.7478 -11.9914 19.7917 -2.0994 0.0000 -0.0000 -0.4282 -21.5785 -38.1586 13.7313 7.1250 -0.0000 -0.0000 19.1143 -69.3038 -11.2718
7.1954 15.3894 -37.0435 3.3164 -2.9291 6.3056 0.0000 0.0000 0.0000 -27.9024 -2.0549 -9.4316 2.4289 9.7075 28.0345 0.5739 -12.3471 -14.9776 0.8899 6.0129 16.8218 0.0000 0.0000 0.0000 17.2815 13.4249 -37.9450 -8.8412 -16.7045 55.5394 -0.8299 6.6518 -16.2582 -0.4753 4.4215 -12.2657 -4.8388 1.1318 1.5370 0.0538 1.3370 -3.2524 2.6951 0.8278 -4.3417 -4.9553 0.8356 -10.8463 3.2517 1.5040 11.7077 1.9392 0.7430 5.2399 0.0000 -0.0000 0.0000 -87.6284 -5.4307 23.7087 12.6698 -20.8014 -2.3347 -0.0000 0.0000 -8.1938 19.7474 -8.0839 -2.8899 -7.1250 0.0000 -0.0000 -5.1452 21.4122 2.9233 0.0000 -0.0000 0.0000 92.6263 -16.9295 5.4064 -11.1002 18.4417 -1.8075 0.0000 0.0000 2.0404 -22.5797 -38.1131 14.3951 7.1250 -0.0000 -0.0000 17.7934 -69.5810 -10.5844
7.1905 15.3745 -36.8040 3.9292 -2.7164 6.4294 0.0000 0.0000 0.0000 -28.5114 -1.3031 -8.0836 2.2110 9.2924 26.7144 0.7042 -11.3700 -15.8631 0.0015 0.2499 0.6865 0.0000 0.0000 0.0000 16.6165 13.5145 -38.8681 -8.1012 -16.1932 52.9263 -0.8252 7.1552 -16.2416 -0.5414 4.7144 -13.0958 -5.7190 1.0058 1.2882 -0.0170 1.1503 -3.2388 3.1298 0.7587 -4.1934 -4.9800 0.8071 -10.8177 3.3758 1.4517 11.6619 1.9776 0.7252 5.2217 0.0000 0.0000 0.0000 -87.0810 -6.7811 25.4736 13.4189 -21.8979 -2.6074 -0.0000 0.0000 -10.2593 19.7407 -8.2721 -2.9555 -7.1250 0.0000 -0.0000 -5.1501 21.2139 2.9492 0.0000 0.0000 0.0000 92.8800 -17.5438 2.4406 -10.1288 16.9407 -1.5122 0.0000 0.0000 5.3352 -23.5853 -37.4403 14.8644 7.1250 -0.0000 -0.0000 15.6610 -69.2715 -9.1846
7.1935 15.3672 -36.5645 3.9891 -2.2453 6.5142 0.0000 0.0000 0.0000 -28.5093 -0.8998 -6.6623 2.0399 8.9486 25.6348 0.6700 -11.7336 -15.6592 0.0229 -0.9765 -2.6842 0.0000 0.0000 0.0000 16.5483 13.4716 -39.5654 -7.2996 -15.5790 49.9984 -0.8511 7.2344 -16.4946 -0.4700 4.3970 -12.1962 -5.9205 0.8006 1.0355 0.0691 0.8936 -3.1234 3.3501 0.6286 -3.9103 -4.8280 0.8184 -10.7430 3.2965 1.4522 11.3577 1.9238 0.7286 5.1163 0.0000 0.0000 0.0000 -86.5621 -8.0949 27.3310 14.3185 -23.1881 -2.9523 -0.0000 0.0000 -12.2391 20.6205 -8.1524 -3.0544 -7.1250 0.0000 -0.0000 -4.5127 21.2889 2.5742 0.0000 0.0000 0.0000 93.0762 -18.0954 -0.8778 -9.3031 15.6421 -1.2806 0.0000 0.0000 10.0271 -22.9675 -37.1450 14.3544 7.1250 -0.0000 -0.0000 16.0973 -68.7983 -9.2746
7.1976 15.3849 -36.3347 3.3874 -1.7260 6.6761 0.0000 0.0000 0.0000 -27.7615 -0.3967 -5.5641 1.8929 8.6393 24.6733 0.6547 -11.7707 -15.5314 0.1240 -2.2700 -6.2524 0.0000 0.0000 0.0000 17.2214 13.4393 -39.9563 -6.4156 -14.8194 46.6279 -0.8225 7.2279 -16.2209 -0.3273 3.6771 -10.1700 -5.3942 0.6719 1.0295 0.3141 0.7456 -3.1489 3.3160 0.5436 -3.9109 -4.8088 0.7398 -10.6815 3.3510 1.3349 11.1574 1.9266 0.6769 5.0485 -0.0000 -0.0000 0.0000 -86.2500 -9.4247 28.4586 15.0706 -24.2444 -3.2549 -0.0000 0.0000 -13.3375 21.6200 -7.7741 -3.0687 -7.1250 0.0000 -0.0000 -3.7840 21.6325 2.1271 -0.0000 -0.0000 0.0000 93.4318 -18.7727 -5.8066 -8.6095 14.5360 -1.1000 0.0000 0.0000 16.6185 -19.9921 -36.7315 12.2754 7.1250 -0.0000 -0.0000 19.2802 -67.5001 -10.5917
7.1964 15.4052 -36.1074 3.0135 -1.2681 6.9435 0.0000 0.0000 0.0000 -27.1096 0.8628 -4.7968 1.7549 8.3358 23.7388 0.5812 -12.3667 -15.0530 0.3323 -3.7047 -10.2474 0.0000 0.0000 0.0000 17.4999 13.7870 -40.2405 -5.5218 -13.9484 43.0310 -0.8000 6.9012 -15.9797 -0.3381 3.7364 -10.3362 -5.1027 0.5944 1.0769 0.4532 0.6493 -3.2958 3.3001 0.4964 -4.0781 -4.7369 0.6183 -10.5705 3.4056 1.1489 11.0147 1.9162 0.5928 4.9936 0.0000 0.0000 0.0000 -85.7642 -10.7934 29.7692 15.6754 -25.0786 -3.5073 -0.0000 0.0000 -15.0121 22.1156 -7.8981 -3.1961 -7.1250 0.0000 -0.0000 -3.4255 21.4694 1.9375 0.0000 0.0000 0.0000 93.9175 -19.5655 -11.1136 -8.0144 13.5763 -0.9555 0.0000 0.0000 22.4039 -17.9444 -36.2620 10.8436 7.1250 -0.0000 -0.0000 21.1525 -66.4634 -11.1580
